<svg width="31" height="114" viewBox="0 0 31 114" fill="none" xmlns="http://www.w3.org/2000/svg">
<path d="M15.5016 0.799995C19.7682 0.799995 23.3682 2.33333 26.3016 5.4C29.3682 8.33333 30.9016 11.9333 30.9016 16.2C30.9016 20.4667 29.3682 24.1333 26.3016 27.2C23.3682 30.2667 19.7682 31.8 15.5016 31.8C11.2349 31.8 7.56823 30.2667 4.50156 27.2C1.56823 24.1333 0.101563 20.4667 0.101563 16.2C0.101563 11.9333 1.56823 8.33333 4.50156 5.4C7.56823 2.33333 11.2349 0.799995 15.5016 0.799995ZM14.5016 59.2C19.7016 59.2 23.7016 61.1333 26.5016 65C29.3016 68.7333 30.7016 73 30.7016 77.8C30.7016 85.2667 28.5016 92.0667 24.1016 98.2C19.8349 104.333 14.7682 109.533 8.90156 113.8L1.10156 105.6C2.16823 104.533 3.4349 103.133 4.90156 101.4C6.36823 99.6667 7.6349 97.8 8.70156 95.8C9.76823 93.9333 10.3016 92.3333 10.3016 91C10.3016 89.2667 9.50156 87.8 7.90156 86.6C6.30156 85.2667 4.70156 83.6 3.10156 81.6C1.50156 79.6 0.701563 76.8 0.701563 73.2C0.701563 69.3333 2.0349 66.0667 4.70156 63.4C7.36823 60.6 10.6349 59.2 14.5016 59.2Z" fill="black"/>
</svg>
